<svg width="300" height="354" viewBox="0 0 300 354" fill="none" xmlns="http://www.w3.org/2000/svg">
<rect width="300" height="354" rx="10" fill="url(#paint0_radial_115_9)"/>
<path d="M183.18 285.26C195.753 285.26 205.49 283.497 212.39 279.97C219.29 276.443 222.74 271.307 222.74 264.56C222.74 258.58 220.67 253.443 216.53 249.15C212.39 244.703 207.253 240.947 201.12 237.88C194.987 234.813 186.63 231.21 176.05 227.07C175.13 226.763 172.907 225.92 169.38 224.54C154.967 218.713 143.85 212.887 136.03 207.06C128.363 201.233 124.53 193.72 124.53 184.52C124.53 174.247 128.593 166.503 136.72 161.29C144.847 156.077 155.273 153.47 168 153.47C177.353 153.47 185.94 154.697 193.76 157.15C201.733 159.45 208.02 162.67 212.62 166.81C217.373 170.95 219.75 175.627 219.75 180.84C217.91 181.76 216.147 182.22 214.46 182.22C212.62 182.22 210.703 181.837 208.71 181.07C206.87 180.15 204.11 178.693 200.43 176.7C194.45 173.48 188.853 170.95 183.64 169.11C178.427 167.117 172.293 166.12 165.24 166.12C156.347 166.12 149.14 167.653 143.62 170.72C138.1 173.787 135.34 178.08 135.34 183.6C135.34 187.893 137.18 191.803 140.86 195.33C144.693 198.857 149.447 202 155.12 204.76C160.947 207.367 168.69 210.51 178.35 214.19C190.617 218.943 200.737 223.39 208.71 227.53C216.683 231.67 223.43 236.96 228.95 243.4C234.623 249.687 237.46 257.2 237.46 265.94C237.46 276.213 232.553 284.187 222.74 289.86C212.927 295.38 200.737 298.14 186.17 298.14C174.67 298.14 163.323 296.453 152.13 293.08C140.937 289.707 131.353 284.723 123.38 278.13C115.407 271.383 110.347 263.333 108.2 253.98C108.2 249.84 109.35 246.313 111.65 243.4C113.95 240.333 116.787 238.8 120.16 238.8C120.16 248.767 122.92 257.277 128.44 264.33C134.113 271.23 141.703 276.443 151.21 279.97C160.87 283.497 171.527 285.26 183.18 285.26Z" fill="white"/>
<defs>
<radialGradient id="paint0_radial_115_9" cx="0" cy="0" r="1" gradientUnits="userSpaceOnUse" gradientTransform="translate(150 177) rotate(90) scale(177 150)">
<stop stop-color="#EA4C89"/>
<stop offset="0.630108" stop-color="#EA4C89" stop-opacity="0.401566"/>
<stop offset="0.630208" stop-color="#EA4C89" stop-opacity="0.833968"/>
<stop offset="0.828125" stop-color="#EA4C89" stop-opacity="0.995884"/>
<stop offset="0.9999" stop-color="#EA4C89" stop-opacity="0.0625"/>
<stop offset="1" stop-color="#EA4C89" stop-opacity="0"/>
</radialGradient>
</defs>
</svg>
