<svg width="300" height="354" viewBox="0 0 300 354" fill="none" xmlns="http://www.w3.org/2000/svg">
<rect width="300" height="354" rx="10" fill="url(#paint0_radial_115_11)"/>
<path d="M228.12 301.82C227.047 303.047 225.513 303.66 223.52 303.66C216.313 303.66 204.813 297.067 189.02 283.88C173.38 270.54 159.503 257.277 147.39 244.09C148.157 248.23 149.613 255.207 151.76 265.02C152.68 268.853 153.447 272.533 154.06 276.06C154.827 279.587 155.21 282.347 155.21 284.34C155.21 288.787 153.6 291.47 150.38 292.39C149.613 294.383 147.543 289.4 144.17 277.44C140.95 265.48 137.883 251.68 134.97 236.04C132.21 220.247 130.83 207.06 130.83 196.48C130.83 191.113 131.29 186.743 132.21 183.37C134.203 181.837 135.89 181.07 137.27 181.07C140.03 181.07 141.947 183.447 143.02 188.2C144.093 192.8 145.09 200.083 146.01 210.05L146.47 215.34C152.45 215.033 160.577 213.73 170.85 211.43C181.277 209.13 190.553 205.987 198.68 202C206.96 197.86 211.1 192.953 211.1 187.28C211.1 184.213 208.877 180.84 204.43 177.16C200.137 173.327 193.467 170.107 184.42 167.5C175.527 164.893 164.563 163.59 151.53 163.59H144.17C135.43 163.59 128.607 165.047 123.7 167.96C118.793 170.72 116.34 176.7 116.34 185.9C114.04 185.9 111.97 184.443 110.13 181.53C108.29 178.617 107.37 175.933 107.37 173.48C107.37 163.973 111.893 157.763 120.94 154.85C130.14 151.937 143.327 150.48 160.5 150.48C169.547 150.48 178.977 151.937 188.79 154.85C198.603 157.763 206.883 162.363 213.63 168.65C220.377 174.783 223.75 182.45 223.75 191.65C223.75 197.937 220.913 203.15 215.24 207.29C209.72 211.43 203.203 214.65 195.69 216.95C188.177 219.25 178.977 221.627 168.09 224.08C159.043 226.073 153.14 227.53 150.38 228.45C162.187 244.397 173.533 256.817 184.42 265.71C195.46 274.603 206.96 282.653 218.92 289.86C223.06 292.313 225.973 294.153 227.66 295.38C229.347 296.607 230.19 297.757 230.19 298.83C230.19 299.903 229.5 300.9 228.12 301.82Z" fill="white"/>
<defs>
<radialGradient id="paint0_radial_115_11" cx="0" cy="0" r="1" gradientUnits="userSpaceOnUse" gradientTransform="translate(150 177) rotate(90) scale(177 150)">
<stop stop-color="#EA4C89"/>
<stop offset="0.630108" stop-color="#EA4C89" stop-opacity="0.401566"/>
<stop offset="0.630208" stop-color="#EA4C89" stop-opacity="0.833968"/>
<stop offset="0.828125" stop-color="#EA4C89" stop-opacity="0.995884"/>
<stop offset="0.9999" stop-color="#EA4C89" stop-opacity="0.0625"/>
<stop offset="1" stop-color="#EA4C89" stop-opacity="0"/>
</radialGradient>
</defs>
</svg>
