<svg width="35" height="35" viewBox="0 0 35 35" fill="none" xmlns="http://www.w3.org/2000/svg">
<g clip-path="url(#clip0_10_98)">
<path fill-rule="evenodd" clip-rule="evenodd" d="M0 35H35V0H0V35Z" fill="white"/>
<path fill-rule="evenodd" clip-rule="evenodd" d="M17.4992 6.31946C11.057 6.31946 5.83325 11.5632 5.83325 18.0331C5.83325 23.2073 9.17575 27.5974 13.8125 29.1465C14.3959 29.2541 14.6088 28.8924 14.6088 28.5821C14.6088 28.3039 14.5986 27.5674 14.5927 26.5901C11.3472 27.298 10.6625 25.0199 10.6625 25.0199C10.1324 23.667 9.36752 23.3068 9.36752 23.3068C8.30804 22.5799 9.44773 22.5946 9.44773 22.5946C10.618 22.6773 11.2342 23.8017 11.2342 23.8017C12.2754 25.5916 13.9649 25.0748 14.6299 24.7746C14.7356 24.0177 15.0375 23.5016 15.3708 23.2087C12.78 22.913 10.0566 21.9086 10.0566 17.4204C10.0566 16.1415 10.5109 15.0961 11.2575 14.2769C11.1372 13.9804 10.7369 12.7901 11.3713 11.1774C11.3713 11.1774 12.3513 10.8626 14.5796 12.378C15.5108 12.1181 16.5083 11.9885 17.5006 11.9834C18.4916 11.9885 19.4898 12.1181 20.4217 12.378C22.6486 10.8626 23.6264 11.1774 23.6264 11.1774C24.2629 12.7901 23.8626 13.9804 23.7423 14.2769C24.4904 15.0961 24.9418 16.1415 24.9418 17.4204C24.9418 21.9196 22.214 22.9101 19.6152 23.2C20.0338 23.5616 20.4071 24.2761 20.4071 25.369C20.4071 26.9349 20.3925 28.1977 20.3925 28.5821C20.3925 28.8954 20.6025 29.2599 21.1946 29.145C25.827 27.593 29.1666 23.2058 29.1666 18.0331C29.1666 11.5632 23.9428 6.31946 17.4992 6.31946Z" fill="#EA4C89"/>
</g>
<defs>
<clipPath id="clip0_10_98">
<rect width="35" height="35" rx="17.5" fill="white"/>
</clipPath>
</defs>
</svg>
