<svg width="79" height="72" viewBox="0 0 79 72" fill="none" xmlns="http://www.w3.org/2000/svg">
<rect width="79" height="72" rx="36" fill="#EA4C89"/>
<path d="M33.584 49.224C33.416 49.416 33.176 49.512 32.864 49.512C31.736 49.512 29.936 48.48 27.464 46.416C25.016 44.328 22.844 42.252 20.948 40.188C21.068 40.836 21.296 41.928 21.632 43.464C21.776 44.064 21.896 44.64 21.992 45.192C22.112 45.744 22.172 46.176 22.172 46.488C22.172 47.184 21.92 47.604 21.416 47.748C21.296 48.06 20.972 47.28 20.444 45.408C19.94 43.536 19.46 41.376 19.004 38.928C18.572 36.456 18.356 34.392 18.356 32.736C18.356 31.896 18.428 31.212 18.572 30.684C18.884 30.444 19.148 30.324 19.364 30.324C19.796 30.324 20.096 30.696 20.264 31.44C20.432 32.16 20.588 33.3 20.732 34.86L20.804 35.688C21.74 35.64 23.012 35.436 24.62 35.076C26.252 34.716 27.704 34.224 28.976 33.6C30.272 32.952 30.92 32.184 30.92 31.296C30.92 30.816 30.572 30.288 29.876 29.712C29.204 29.112 28.16 28.608 26.744 28.2C25.352 27.792 23.636 27.588 21.596 27.588H20.444C19.076 27.588 18.008 27.816 17.24 28.272C16.472 28.704 16.088 29.64 16.088 31.08C15.728 31.08 15.404 30.852 15.116 30.396C14.828 29.94 14.684 29.52 14.684 29.136C14.684 27.648 15.392 26.676 16.808 26.22C18.248 25.764 20.312 25.536 23 25.536C24.416 25.536 25.892 25.764 27.428 26.22C28.964 26.676 30.26 27.396 31.316 28.38C32.372 29.34 32.9 30.54 32.9 31.98C32.9 32.964 32.456 33.78 31.568 34.428C30.704 35.076 29.684 35.58 28.508 35.94C27.332 36.3 25.892 36.672 24.188 37.056C22.772 37.368 21.848 37.596 21.416 37.74C23.264 40.236 25.04 42.18 26.744 43.572C28.472 44.964 30.272 46.224 32.144 47.352C32.792 47.736 33.248 48.024 33.512 48.216C33.776 48.408 33.908 48.588 33.908 48.756C33.908 48.924 33.8 49.08 33.584 49.224ZM37.6424 48C37.2104 48 36.8264 47.808 36.4904 47.424C36.1784 47.016 35.9264 46.548 35.7344 46.02C35.5664 45.468 35.4824 45 35.4824 44.616C35.4824 43.848 35.5904 43.212 35.8064 42.708C36.0464 42.18 36.3224 41.808 36.6344 41.592C36.9464 41.352 37.2344 41.232 37.4984 41.232C38.3384 41.232 39.0104 41.64 39.5144 42.456C40.0184 43.248 40.2704 44.1 40.2704 45.012C40.2704 45.372 40.1264 45.792 39.8384 46.272C39.5744 46.752 39.2384 47.16 38.8304 47.496C38.4224 47.832 38.0264 48 37.6424 48ZM54.4221 46.632C56.3901 46.632 57.9141 46.356 58.9941 45.804C60.0741 45.252 60.6141 44.448 60.6141 43.392C60.6141 42.456 60.2901 41.652 59.6421 40.98C58.9941 40.284 58.1901 39.696 57.2301 39.216C56.2701 38.736 54.9621 38.172 53.3061 37.524C53.1621 37.476 52.8141 37.344 52.2621 37.128C50.0061 36.216 48.2661 35.304 47.0421 34.392C45.8421 33.48 45.2421 32.304 45.2421 30.864C45.2421 29.256 45.8781 28.044 47.1501 27.228C48.4221 26.412 50.0541 26.004 52.0461 26.004C53.5101 26.004 54.8541 26.196 56.0781 26.58C57.3261 26.94 58.3101 27.444 59.0301 28.092C59.7741 28.74 60.1461 29.472 60.1461 30.288C59.8581 30.432 59.5821 30.504 59.3181 30.504C59.0301 30.504 58.7301 30.444 58.4181 30.324C58.1301 30.18 57.6981 29.952 57.1221 29.64C56.1861 29.136 55.3101 28.74 54.4941 28.452C53.6781 28.14 52.7181 27.984 51.6141 27.984C50.2221 27.984 49.0941 28.224 48.2301 28.704C47.3661 29.184 46.9341 29.856 46.9341 30.72C46.9341 31.392 47.2221 32.004 47.7981 32.556C48.3981 33.108 49.1421 33.6 50.0301 34.032C50.9421 34.44 52.1541 34.932 53.6661 35.508C55.5861 36.252 57.1701 36.948 58.4181 37.596C59.6661 38.244 60.7221 39.072 61.5861 40.08C62.4741 41.064 62.9181 42.24 62.9181 43.608C62.9181 45.216 62.1501 46.464 60.6141 47.352C59.0781 48.216 57.1701 48.648 54.8901 48.648C53.0901 48.648 51.3141 48.384 49.5621 47.856C47.8101 47.328 46.3101 46.548 45.0621 45.516C43.8141 44.46 43.0221 43.2 42.6861 41.736C42.6861 41.088 42.8661 40.536 43.2261 40.08C43.5861 39.6 44.0301 39.36 44.5581 39.36C44.5581 40.92 44.9901 42.252 45.8541 43.356C46.7421 44.436 47.9301 45.252 49.4181 45.804C50.9301 46.356 52.5981 46.632 54.4221 46.632Z" fill="white"/>
</svg>
