<svg width="35" height="35" viewBox="0 0 35 35" fill="none" xmlns="http://www.w3.org/2000/svg">
<g clip-path="url(#clip0_10_109)">
<path fill-rule="evenodd" clip-rule="evenodd" d="M0 35H35V0H0V35Z" fill="white"/>
<path fill-rule="evenodd" clip-rule="evenodd" d="M30.1389 30.1389H24.9451V21.2927C24.9451 18.8673 24.0235 17.5119 22.1038 17.5119C20.0154 17.5119 18.9243 18.9224 18.9243 21.2927V30.1389H13.919V13.287H18.9243V15.557C18.9243 15.557 20.4293 12.7722 24.0054 12.7722C27.5798 12.7722 30.1389 14.9549 30.1389 19.4693V30.1389ZM7.94757 11.0804C6.24264 11.0804 4.86108 9.688 4.86108 7.97074C4.86108 6.25348 6.24264 4.86108 7.94757 4.86108C9.65251 4.86108 11.0332 6.25348 11.0332 7.97074C11.0332 9.688 9.65251 11.0804 7.94757 11.0804ZM5.36302 30.1389H10.5823V13.287H5.36302V30.1389Z" fill="#EA4C89"/>
</g>
<defs>
<clipPath id="clip0_10_109">
<rect width="35" height="35" rx="17.5" fill="white"/>
</clipPath>
</defs>
</svg>
