<svg width="157" height="27" viewBox="0 0 157 27" fill="none" xmlns="http://www.w3.org/2000/svg">
<path d="M19.584 26.224C19.416 26.416 19.176 26.512 18.864 26.512C17.736 26.512 15.936 25.48 13.464 23.416C11.016 21.328 8.844 19.252 6.948 17.188C7.068 17.836 7.296 18.928 7.632 20.464C7.776 21.064 7.896 21.64 7.992 22.192C8.112 22.744 8.172 23.176 8.172 23.488C8.172 24.184 7.92 24.604 7.416 24.748C7.296 25.06 6.972 24.28 6.444 22.408C5.94 20.536 5.46 18.376 5.004 15.928C4.572 13.456 4.356 11.392 4.356 9.736C4.356 8.896 4.428 8.212 4.572 7.684C4.884 7.444 5.148 7.324 5.364 7.324C5.796 7.324 6.096 7.696 6.264 8.44C6.432 9.16 6.588 10.3 6.732 11.86L6.804 12.688C7.74 12.64 9.012 12.436 10.62 12.076C12.252 11.716 13.704 11.224 14.976 10.6C16.272 9.952 16.92 9.184 16.92 8.296C16.92 7.816 16.572 7.288 15.876 6.712C15.204 6.112 14.16 5.608 12.744 5.2C11.352 4.792 9.636 4.588 7.596 4.588H6.444C5.076 4.588 4.008 4.816 3.24 5.272C2.472 5.704 2.088 6.64 2.088 8.08C1.728 8.08 1.404 7.852 1.116 7.396C0.828 6.94 0.684 6.52 0.684 6.136C0.684 4.648 1.392 3.676 2.808 3.22C4.248 2.764 6.312 2.536 9 2.536C10.416 2.536 11.892 2.764 13.428 3.22C14.964 3.676 16.26 4.396 17.316 5.38C18.372 6.34 18.9 7.54 18.9 8.98C18.9 9.964 18.456 10.78 17.568 11.428C16.704 12.076 15.684 12.58 14.508 12.94C13.332 13.3 11.892 13.672 10.188 14.056C8.772 14.368 7.848 14.596 7.416 14.74C9.264 17.236 11.04 19.18 12.744 20.572C14.472 21.964 16.272 23.224 18.144 24.352C18.792 24.736 19.248 25.024 19.512 25.216C19.776 25.408 19.908 25.588 19.908 25.756C19.908 25.924 19.8 26.08 19.584 26.224ZM28.7904 25.036C27.3744 25.036 26.0904 24.724 24.9384 24.1C23.8104 23.452 22.9224 22.564 22.2744 21.436C21.6504 20.284 21.3384 18.976 21.3384 17.512C21.3384 15.112 22.2144 13.324 23.9664 12.148C25.7424 10.972 27.9144 10.384 30.4824 10.384C31.6584 10.384 32.7504 10.672 33.7584 11.248C34.7904 11.824 35.6184 12.652 36.2424 13.732C36.8664 14.812 37.1784 16.06 37.1784 17.476C37.1784 19.012 36.7824 20.356 35.9904 21.508C35.1984 22.636 34.1544 23.512 32.8584 24.136C31.5864 24.736 30.2304 25.036 28.7904 25.036ZM28.3944 22.984C30.6264 22.984 32.3184 22.48 33.4704 21.472C34.6224 20.464 35.1984 18.988 35.1984 17.044C35.1984 15.724 34.7424 14.584 33.8304 13.624C32.9424 12.664 31.6944 12.184 30.0864 12.184C29.0064 12.184 27.9144 12.388 26.8104 12.796C25.7064 13.204 24.7944 13.816 24.0744 14.632C23.3544 15.448 22.9944 16.432 22.9944 17.584C22.9944 18.544 23.2344 19.444 23.7144 20.284C24.1944 21.1 24.8424 21.76 25.6584 22.264C26.4984 22.744 27.4104 22.984 28.3944 22.984ZM40.2216 20.752C40.5576 20.488 40.8816 20.356 41.1936 20.356C41.4816 20.356 41.7576 20.44 42.0216 20.608C42.3096 20.776 42.5976 20.992 42.8856 21.256C43.1736 21.496 43.4016 21.676 43.5696 21.796C44.1216 22.228 44.8776 22.564 45.8376 22.804C46.7976 23.044 47.8176 23.164 48.8976 23.164C50.1216 23.164 51.2136 22.936 52.1736 22.48C53.1576 22 53.6496 21.364 53.6496 20.572C53.6496 19.852 53.3856 19.288 52.8576 18.88C52.3296 18.448 51.6936 18.136 50.9496 17.944C50.2056 17.752 49.2216 17.572 47.9976 17.404C46.3416 17.212 45.0216 16.972 44.0376 16.684C43.0776 16.396 42.3096 15.928 41.7336 15.28C41.1576 14.608 40.8696 13.672 40.8696 12.472C40.8696 11.176 41.4816 10.216 42.7056 9.592C43.9296 8.944 45.3336 8.62 46.9176 8.62C48.3576 8.62 49.5816 8.932 50.5896 9.556C51.6216 10.156 52.1496 11.02 52.1736 12.148C52.2216 12.796 52.1256 13.312 51.8856 13.696C51.6456 14.056 51.3576 14.236 51.0216 14.236C50.8296 14.236 50.6616 14.164 50.5176 14.02C50.3976 13.876 50.3376 13.684 50.3376 13.444C50.3376 13.06 50.4696 12.64 50.7336 12.184C50.6136 11.608 50.2176 11.176 49.5456 10.888C48.8976 10.6 48.1176 10.456 47.2056 10.456C45.8616 10.456 44.7936 10.708 44.0016 11.212C43.2096 11.692 42.8136 12.268 42.8136 12.94C42.8136 13.66 43.1016 14.212 43.6776 14.596C44.2536 14.98 44.9496 15.256 45.7656 15.424C46.6056 15.568 47.7936 15.712 49.3296 15.856C50.6016 16.024 51.6336 16.228 52.4256 16.468C53.2416 16.708 53.9256 17.176 54.4776 17.872C55.0296 18.544 55.3056 19.516 55.3056 20.788C55.3056 22.108 54.6936 23.152 53.4696 23.92C52.2456 24.664 50.7816 25.036 49.0776 25.036C46.8936 25.036 44.9376 24.664 43.2096 23.92C41.5056 23.176 40.5096 22.12 40.2216 20.752ZM66.854 25C65.318 25 63.902 24.7 62.606 24.1C61.31 23.5 60.278 22.648 59.51 21.544C58.742 20.44 58.358 19.168 58.358 17.728C58.358 16.12 58.658 14.62 59.258 13.228C59.858 11.812 60.734 10.684 61.886 9.844C63.062 8.98 64.43 8.548 65.99 8.548C67.622 8.548 68.858 9.076 69.698 10.132C70.538 11.164 70.934 12.472 70.886 14.056C70.886 15.472 70.322 16.552 69.194 17.296C68.09 18.04 66.674 18.412 64.946 18.412C64.682 18.412 64.286 18.388 63.758 18.34C62.894 18.244 62.282 18.112 61.922 17.944C61.562 17.776 61.382 17.44 61.382 16.936C61.382 16.768 61.43 16.648 61.526 16.576C61.622 16.48 61.814 16.432 62.102 16.432C62.414 16.432 62.966 16.504 63.758 16.648C64.526 16.792 65.21 16.864 65.81 16.864C68.018 16.864 69.122 15.904 69.122 13.984C69.122 12.832 68.906 11.92 68.474 11.248C68.066 10.576 67.334 10.24 66.278 10.24C65.126 10.24 64.094 10.552 63.182 11.176C62.27 11.776 61.562 12.568 61.058 13.552C60.578 14.536 60.338 15.58 60.338 16.684C60.338 18.58 60.866 20.14 61.922 21.364C62.978 22.564 64.61 23.164 66.818 23.164C67.082 23.164 67.526 23.14 68.15 23.092C68.414 23.068 68.738 22.996 69.122 22.876C69.506 22.756 69.782 22.672 69.95 22.624C70.982 22.264 71.738 22.084 72.218 22.084C72.578 22.084 72.854 22.18 73.046 22.372C72.446 23.284 71.546 23.956 70.346 24.388C69.17 24.796 68.006 25 66.854 25ZM86.2307 23.632C88.1987 23.632 89.7227 23.356 90.8027 22.804C91.8827 22.252 92.4227 21.448 92.4227 20.392C92.4227 19.456 92.0987 18.652 91.4507 17.98C90.8027 17.284 89.9987 16.696 89.0387 16.216C88.0787 15.736 86.7707 15.172 85.1147 14.524C84.9707 14.476 84.6227 14.344 84.0707 14.128C81.8147 13.216 80.0747 12.304 78.8507 11.392C77.6507 10.48 77.0507 9.304 77.0507 7.864C77.0507 6.256 77.6867 5.044 78.9587 4.228C80.2307 3.412 81.8627 3.004 83.8547 3.004C85.3187 3.004 86.6627 3.196 87.8867 3.58C89.1347 3.94 90.1187 4.444 90.8387 5.092C91.5827 5.74 91.9547 6.472 91.9547 7.288C91.6667 7.432 91.3907 7.504 91.1267 7.504C90.8387 7.504 90.5387 7.444 90.2267 7.324C89.9387 7.18 89.5067 6.952 88.9307 6.64C87.9947 6.136 87.1187 5.74 86.3027 5.452C85.4867 5.14 84.5267 4.984 83.4227 4.984C82.0307 4.984 80.9027 5.224 80.0387 5.704C79.1747 6.184 78.7427 6.856 78.7427 7.72C78.7427 8.392 79.0307 9.004 79.6067 9.556C80.2067 10.108 80.9507 10.6 81.8387 11.032C82.7507 11.44 83.9627 11.932 85.4747 12.508C87.3947 13.252 88.9787 13.948 90.2267 14.596C91.4747 15.244 92.5307 16.072 93.3947 17.08C94.2827 18.064 94.7267 19.24 94.7267 20.608C94.7267 22.216 93.9587 23.464 92.4227 24.352C90.8867 25.216 88.9787 25.648 86.6987 25.648C84.8987 25.648 83.1227 25.384 81.3707 24.856C79.6187 24.328 78.1187 23.548 76.8707 22.516C75.6227 21.46 74.8307 20.2 74.4947 18.736C74.4947 18.088 74.6747 17.536 75.0347 17.08C75.3947 16.6 75.8387 16.36 76.3667 16.36C76.3667 17.92 76.7987 19.252 77.6627 20.356C78.5507 21.436 79.7387 22.252 81.2267 22.804C82.7387 23.356 84.4067 23.632 86.2307 23.632ZM106.844 25C104.348 25 102.176 24.568 100.328 23.704C98.5043 22.816 97.5923 21.268 97.5923 19.06C97.5923 18.268 97.8323 17.5 98.3123 16.756C98.7923 16.012 99.5003 15.412 100.436 14.956C101.372 14.476 102.512 14.236 103.856 14.236C104.888 14.236 105.764 14.284 106.484 14.38C107.204 14.476 108.032 14.74 108.968 15.172C109.904 15.604 110.876 16.288 111.884 17.224C111.5 15.568 110.924 14.116 110.156 12.868C109.388 11.62 108.524 10.66 107.564 9.988C106.628 9.292 105.704 8.944 104.792 8.944C104.36 8.944 103.952 9.028 103.568 9.196C103.208 9.34 102.764 9.556 102.236 9.844C101.636 10.228 101.192 10.42 100.904 10.42C100.784 10.42 100.676 10.384 100.58 10.312C100.508 10.216 100.472 10.108 100.472 9.988C100.472 9.028 100.892 8.284 101.732 7.756C102.596 7.228 103.64 6.988 104.864 7.036C106.544 7.132 108.08 7.852 109.472 9.196C110.864 10.516 111.956 12.16 112.748 14.128C113.564 16.096 113.972 18.028 113.972 19.924C113.972 20.236 113.948 20.68 113.9 21.256L112.748 21.184C111.836 19.336 110.66 18.028 109.22 17.26C107.804 16.468 106.376 16.072 104.936 16.072C103.088 16.072 101.768 16.348 100.976 16.9C100.184 17.452 99.7883 18.256 99.7883 19.312C99.7883 20.416 100.34 21.304 101.444 21.976C102.548 22.648 103.964 22.984 105.692 22.984C106.652 22.984 107.42 22.936 107.996 22.84C108.572 22.72 109.172 22.564 109.796 22.372C110.3 22.204 110.744 22.084 111.128 22.012C111.512 21.94 112.004 21.904 112.604 21.904C113.276 21.904 113.696 21.952 113.864 22.048C114.056 22.144 114.152 22.36 114.152 22.696C114.152 22.936 113.66 23.236 112.676 23.596C111.692 23.956 110.588 24.28 109.364 24.568C108.14 24.856 107.3 25 106.844 25ZM119.014 24.748C118.486 22.132 118.078 19.036 117.79 15.46C117.526 11.86 117.394 8.38 117.394 5.02C117.394 3.34 117.43 1.852 117.502 0.555999C117.502 0.243999 117.742 0.0879989 118.222 0.0879989C118.606 0.0879989 118.846 0.183999 118.942 0.375999C119.062 0.567998 119.122 0.867998 119.122 1.276C119.122 5.164 119.194 8.488 119.338 11.248C119.482 13.984 119.674 16.936 119.914 20.104C120.058 22.144 120.154 23.524 120.202 24.244C120.226 24.628 120.022 24.82 119.59 24.82C119.446 24.82 119.254 24.796 119.014 24.748ZM130.533 25.036C129.117 25.036 127.833 24.724 126.681 24.1C125.553 23.452 124.665 22.564 124.017 21.436C123.393 20.284 123.081 18.976 123.081 17.512C123.081 15.112 123.957 13.324 125.709 12.148C127.485 10.972 129.657 10.384 132.225 10.384C133.401 10.384 134.493 10.672 135.501 11.248C136.533 11.824 137.361 12.652 137.985 13.732C138.609 14.812 138.921 16.06 138.921 17.476C138.921 19.012 138.525 20.356 137.733 21.508C136.941 22.636 135.897 23.512 134.601 24.136C133.329 24.736 131.973 25.036 130.533 25.036ZM130.137 22.984C132.369 22.984 134.061 22.48 135.213 21.472C136.365 20.464 136.941 18.988 136.941 17.044C136.941 15.724 136.485 14.584 135.573 13.624C134.685 12.664 133.437 12.184 131.829 12.184C130.749 12.184 129.657 12.388 128.553 12.796C127.449 13.204 126.537 13.816 125.817 14.632C125.097 15.448 124.737 16.432 124.737 17.584C124.737 18.544 124.977 19.444 125.457 20.284C125.937 21.1 126.585 21.76 127.401 22.264C128.241 22.744 129.153 22.984 130.137 22.984ZM145.204 25.144C144.868 25.24 144.676 25.288 144.628 25.288C144.436 25.288 144.232 25.192 144.016 25C143.224 23.824 142.648 21.772 142.288 18.844C141.952 15.916 141.784 13.396 141.784 11.284C141.784 10.948 142.024 10.78 142.504 10.78C143.224 10.78 143.584 11.176 143.584 11.968C143.584 12.184 143.572 12.364 143.548 12.508C143.764 12.004 144.172 11.488 144.772 10.96C145.372 10.432 146.068 9.988 146.86 9.628C147.652 9.268 148.456 9.088 149.272 9.088C151.84 9.088 153.712 10.228 154.888 12.508C156.064 14.764 156.652 17.572 156.652 20.932C156.652 22.084 156.532 23.008 156.292 23.704C156.052 24.376 155.728 24.712 155.32 24.712C154.888 24.712 154.672 24.58 154.672 24.316C154.84 23.044 154.924 21.796 154.924 20.572C154.924 17.476 154.384 15.136 153.304 13.552C152.224 11.944 150.796 11.14 149.02 11.14C148.156 11.14 147.316 11.356 146.5 11.788C145.708 12.22 145.06 12.82 144.556 13.588C144.076 14.356 143.836 15.232 143.836 16.216C143.836 17.32 143.896 18.28 144.016 19.096C144.136 19.912 144.328 20.896 144.592 22.048C144.88 23.176 145.084 24.208 145.204 25.144Z" fill="#EA4C89"/>
</svg>
