<svg width="74" height="25" viewBox="0 0 74 25" fill="none" xmlns="http://www.w3.org/2000/svg">
<path d="M19.584 24.224C19.416 24.416 19.176 24.512 18.864 24.512C17.736 24.512 15.936 23.48 13.464 21.416C11.016 19.328 8.844 17.252 6.948 15.188C7.068 15.836 7.296 16.928 7.632 18.464C7.776 19.064 7.896 19.64 7.992 20.192C8.112 20.744 8.172 21.176 8.172 21.488C8.172 22.184 7.92 22.604 7.416 22.748C7.296 23.06 6.972 22.28 6.444 20.408C5.94 18.536 5.46 16.376 5.004 13.928C4.572 11.456 4.356 9.392 4.356 7.736C4.356 6.896 4.428 6.212 4.572 5.684C4.884 5.444 5.148 5.324 5.364 5.324C5.796 5.324 6.096 5.696 6.264 6.44C6.432 7.16 6.588 8.3 6.732 9.86L6.804 10.688C7.74 10.64 9.012 10.436 10.62 10.076C12.252 9.716 13.704 9.224 14.976 8.6C16.272 7.952 16.92 7.184 16.92 6.296C16.92 5.816 16.572 5.288 15.876 4.712C15.204 4.112 14.16 3.608 12.744 3.2C11.352 2.792 9.636 2.588 7.596 2.588H6.444C5.076 2.588 4.008 2.816 3.24 3.272C2.472 3.704 2.088 4.64 2.088 6.08C1.728 6.08 1.404 5.852 1.116 5.396C0.828 4.94 0.684 4.52 0.684 4.136C0.684 2.648 1.392 1.676 2.808 1.22C4.248 0.763999 6.312 0.536 9 0.536C10.416 0.536 11.892 0.763999 13.428 1.22C14.964 1.676 16.26 2.396 17.316 3.38C18.372 4.34 18.9 5.54 18.9 6.98C18.9 7.964 18.456 8.78 17.568 9.428C16.704 10.076 15.684 10.58 14.508 10.94C13.332 11.3 11.892 11.672 10.188 12.056C8.772 12.368 7.848 12.596 7.416 12.74C9.264 15.236 11.04 17.18 12.744 18.572C14.472 19.964 16.272 21.224 18.144 22.352C18.792 22.736 19.248 23.024 19.512 23.216C19.776 23.408 19.908 23.588 19.908 23.756C19.908 23.924 19.8 24.08 19.584 24.224ZM28.7904 23.036C27.3744 23.036 26.0904 22.724 24.9384 22.1C23.8104 21.452 22.9224 20.564 22.2744 19.436C21.6504 18.284 21.3384 16.976 21.3384 15.512C21.3384 13.112 22.2144 11.324 23.9664 10.148C25.7424 8.972 27.9144 8.384 30.4824 8.384C31.6584 8.384 32.7504 8.672 33.7584 9.248C34.7904 9.824 35.6184 10.652 36.2424 11.732C36.8664 12.812 37.1784 14.06 37.1784 15.476C37.1784 17.012 36.7824 18.356 35.9904 19.508C35.1984 20.636 34.1544 21.512 32.8584 22.136C31.5864 22.736 30.2304 23.036 28.7904 23.036ZM28.3944 20.984C30.6264 20.984 32.3184 20.48 33.4704 19.472C34.6224 18.464 35.1984 16.988 35.1984 15.044C35.1984 13.724 34.7424 12.584 33.8304 11.624C32.9424 10.664 31.6944 10.184 30.0864 10.184C29.0064 10.184 27.9144 10.388 26.8104 10.796C25.7064 11.204 24.7944 11.816 24.0744 12.632C23.3544 13.448 22.9944 14.432 22.9944 15.584C22.9944 16.544 23.2344 17.444 23.7144 18.284C24.1944 19.1 24.8424 19.76 25.6584 20.264C26.4984 20.744 27.4104 20.984 28.3944 20.984ZM40.2216 18.752C40.5576 18.488 40.8816 18.356 41.1936 18.356C41.4816 18.356 41.7576 18.44 42.0216 18.608C42.3096 18.776 42.5976 18.992 42.8856 19.256C43.1736 19.496 43.4016 19.676 43.5696 19.796C44.1216 20.228 44.8776 20.564 45.8376 20.804C46.7976 21.044 47.8176 21.164 48.8976 21.164C50.1216 21.164 51.2136 20.936 52.1736 20.48C53.1576 20 53.6496 19.364 53.6496 18.572C53.6496 17.852 53.3856 17.288 52.8576 16.88C52.3296 16.448 51.6936 16.136 50.9496 15.944C50.2056 15.752 49.2216 15.572 47.9976 15.404C46.3416 15.212 45.0216 14.972 44.0376 14.684C43.0776 14.396 42.3096 13.928 41.7336 13.28C41.1576 12.608 40.8696 11.672 40.8696 10.472C40.8696 9.176 41.4816 8.216 42.7056 7.592C43.9296 6.944 45.3336 6.62 46.9176 6.62C48.3576 6.62 49.5816 6.932 50.5896 7.556C51.6216 8.156 52.1496 9.02 52.1736 10.148C52.2216 10.796 52.1256 11.312 51.8856 11.696C51.6456 12.056 51.3576 12.236 51.0216 12.236C50.8296 12.236 50.6616 12.164 50.5176 12.02C50.3976 11.876 50.3376 11.684 50.3376 11.444C50.3376 11.06 50.4696 10.64 50.7336 10.184C50.6136 9.608 50.2176 9.176 49.5456 8.888C48.8976 8.6 48.1176 8.456 47.2056 8.456C45.8616 8.456 44.7936 8.708 44.0016 9.212C43.2096 9.692 42.8136 10.268 42.8136 10.94C42.8136 11.66 43.1016 12.212 43.6776 12.596C44.2536 12.98 44.9496 13.256 45.7656 13.424C46.6056 13.568 47.7936 13.712 49.3296 13.856C50.6016 14.024 51.6336 14.228 52.4256 14.468C53.2416 14.708 53.9256 15.176 54.4776 15.872C55.0296 16.544 55.3056 17.516 55.3056 18.788C55.3056 20.108 54.6936 21.152 53.4696 21.92C52.2456 22.664 50.7816 23.036 49.0776 23.036C46.8936 23.036 44.9376 22.664 43.2096 21.92C41.5056 21.176 40.5096 20.12 40.2216 18.752ZM66.854 23C65.318 23 63.902 22.7 62.606 22.1C61.31 21.5 60.278 20.648 59.51 19.544C58.742 18.44 58.358 17.168 58.358 15.728C58.358 14.12 58.658 12.62 59.258 11.228C59.858 9.812 60.734 8.684 61.886 7.844C63.062 6.98 64.43 6.548 65.99 6.548C67.622 6.548 68.858 7.076 69.698 8.132C70.538 9.164 70.934 10.472 70.886 12.056C70.886 13.472 70.322 14.552 69.194 15.296C68.09 16.04 66.674 16.412 64.946 16.412C64.682 16.412 64.286 16.388 63.758 16.34C62.894 16.244 62.282 16.112 61.922 15.944C61.562 15.776 61.382 15.44 61.382 14.936C61.382 14.768 61.43 14.648 61.526 14.576C61.622 14.48 61.814 14.432 62.102 14.432C62.414 14.432 62.966 14.504 63.758 14.648C64.526 14.792 65.21 14.864 65.81 14.864C68.018 14.864 69.122 13.904 69.122 11.984C69.122 10.832 68.906 9.92 68.474 9.248C68.066 8.576 67.334 8.24 66.278 8.24C65.126 8.24 64.094 8.552 63.182 9.176C62.27 9.776 61.562 10.568 61.058 11.552C60.578 12.536 60.338 13.58 60.338 14.684C60.338 16.58 60.866 18.14 61.922 19.364C62.978 20.564 64.61 21.164 66.818 21.164C67.082 21.164 67.526 21.14 68.15 21.092C68.414 21.068 68.738 20.996 69.122 20.876C69.506 20.756 69.782 20.672 69.95 20.624C70.982 20.264 71.738 20.084 72.218 20.084C72.578 20.084 72.854 20.18 73.046 20.372C72.446 21.284 71.546 21.956 70.346 22.388C69.17 22.796 68.006 23 66.854 23Z" fill="#EA4C89"/>
</svg>
